<?xml version="1.0" standalone="no"?>
<!DOCTYPE svg PUBLIC "-//W3C//DTD SVG 20010904//EN"
 "http://www.w3.org/TR/2001/REC-SVG-20010904/DTD/svg10.dtd">
<svg version="1.0" xmlns="http://www.w3.org/2000/svg"
 width="480.000000pt" height="480.000000pt" viewBox="0 0 480.000000 480.000000"
 preserveAspectRatio="xMidYMid meet">
<metadata>
Created by potrace 1.14, written by Peter Selinger 2001-2017
</metadata>
<g transform="translate(0.000000,480.000000) scale(0.100000,-0.100000)"
fill="#000000" stroke="none">
<path d="M1795 4279 c-199 -37 -322 -103 -488 -259 -193 -181 -308 -413 -333
-665 -1 -16 -6 -64 -10 -105 -8 -78 -8 -228 -1 -387 5 -110 21 -142 91 -188
16 -11 35 -34 43 -53 13 -31 12 -36 -4 -54 -16 -18 -18 -43 -21 -217 -1 -108
-3 -234 -4 -281 -8 -300 111 -563 369 -818 191 -189 315 -241 588 -247 83 -3
173 0 200 6 28 6 59 12 70 13 91 13 357 134 491 224 142 95 302 238 389 347
22 28 42 52 45 55 3 3 20 28 38 55 17 28 35 55 40 60 4 6 25 38 45 72 42 68
48 73 94 63 17 -4 43 -5 57 -3 43 9 98 81 128 169 27 77 55 184 57 214 0 8 4
52 7 97 7 92 -11 170 -48 210 l-21 22 22 88 c12 48 30 122 42 163 29 109 29
366 0 468 -5 18 -10 35 -10 37 0 21 -37 124 -66 186 -128 271 -353 490 -648
633 -32 15 -63 29 -70 30 -7 2 -21 6 -32 10 -36 14 -50 19 -60 22 -53 19 -218
44 -290 44 -120 2 -159 -5 -227 -39 l-56 -29 -33 20 c-18 11 -41 21 -51 23
-10 2 -22 6 -26 9 -38 24 -205 26 -317 5z"/>
</g>
</svg>
